%TF.GenerationSoftware,KiCad,Pcbnew,8.0.5*%
%TF.CreationDate,2024-12-17T10:43:13+01:00*%
%TF.ProjectId,ffc2hdmi,66666332-6864-46d6-992e-6b696361645f,rev?*%
%TF.SameCoordinates,Original*%
%TF.FileFunction,Copper,L1,Top*%
%TF.FilePolarity,Positive*%
%FSLAX46Y46*%
G04 Gerber Fmt 4.6, Leading zero omitted, Abs format (unit mm)*
G04 Created by KiCad (PCBNEW 8.0.5) date 2024-12-17 10:43:13*
%MOMM*%
%LPD*%
G01*
G04 APERTURE LIST*
%TA.AperFunction,WasherPad*%
%ADD10C,2.600000*%
%TD*%
%TA.AperFunction,SMDPad,CuDef*%
%ADD11R,0.600000X1.900000*%
%TD*%
%TA.AperFunction,SMDPad,CuDef*%
%ADD12R,2.100000X2.799999*%
%TD*%
%TA.AperFunction,ComponentPad*%
%ADD13C,1.600000*%
%TD*%
%TA.AperFunction,ComponentPad*%
%ADD14O,1.600000X1.600000*%
%TD*%
%TA.AperFunction,SMDPad,CuDef*%
%ADD15R,0.280000X2.600000*%
%TD*%
%TA.AperFunction,ComponentPad*%
%ADD16O,1.500000X3.300000*%
%TD*%
%TA.AperFunction,ComponentPad*%
%ADD17O,1.500000X2.300000*%
%TD*%
%TA.AperFunction,Conductor*%
%ADD18C,0.200000*%
%TD*%
G04 APERTURE END LIST*
D10*
%TO.P,@HOLE1,*%
%TO.N,*%
X138101100Y-91753600D03*
%TD*%
D11*
%TO.P,X1,1,1*%
%TO.N,GND*%
X155499972Y-87274999D03*
%TO.P,X1,2,1*%
%TO.N,/CAM1-DN0*%
X154499971Y-87274999D03*
%TO.P,X1,3,1*%
%TO.N,/CAM1-DP0*%
X153499971Y-87274999D03*
%TO.P,X1,4,1*%
%TO.N,GND*%
X152499973Y-87274999D03*
%TO.P,X1,5,1*%
%TO.N,/CAM1-DN1*%
X151499972Y-87274999D03*
%TO.P,X1,6,1*%
%TO.N,/CAM1-DP1*%
X150499972Y-87274999D03*
%TO.P,X1,7,1*%
%TO.N,GND*%
X149499971Y-87274999D03*
%TO.P,X1,8,1*%
%TO.N,/CAM1_CN*%
X148499971Y-87274999D03*
%TO.P,X1,9,1*%
%TO.N,/CAM1_CP*%
X147499973Y-87274999D03*
%TO.P,X1,10,1*%
%TO.N,GND*%
X146499972Y-87274999D03*
%TO.P,X1,11,1*%
%TO.N,/CAM_GPIO*%
X145499972Y-87274999D03*
%TO.P,X1,12,1*%
%TO.N,/CAM_CLK*%
X144499971Y-87274999D03*
%TO.P,X1,13,1*%
%TO.N,/SCL0*%
X143499971Y-87274999D03*
%TO.P,X1,14,1*%
%TO.N,/SDA0*%
X142499973Y-87274999D03*
%TO.P,X1,15,1*%
%TO.N,+3V3*%
X141499972Y-87274999D03*
D12*
%TO.P,X1,P1*%
%TO.N,N/C*%
X158649972Y-84924999D03*
%TO.P,X1,P2*%
X138350000Y-84924999D03*
%TD*%
D13*
%TO.P,R2,1,1*%
%TO.N,/SDA0*%
X141525000Y-103135000D03*
D14*
%TO.P,R2,2,2*%
%TO.N,+3V3*%
X141525000Y-92975000D03*
%TD*%
D13*
%TO.P,C2,1,1*%
%TO.N,+3V3*%
X142725000Y-109475000D03*
%TO.P,C2,2,2*%
%TO.N,GND*%
X142725000Y-106975000D03*
%TD*%
D15*
%TO.P,HDMI,P$1,HOTPLUG*%
%TO.N,unconnected-(U$4-HOTPLUG-PadP$1)*%
X144100000Y-113800000D03*
%TO.P,HDMI,P$2,+5V*%
%TO.N,+3V3*%
X144600000Y-113800000D03*
%TO.P,HDMI,P$3,GND*%
%TO.N,GND*%
X145100000Y-113800000D03*
%TO.P,HDMI,P$4,SDA(I2C_DDC)*%
%TO.N,/SDA0*%
X145600000Y-113800000D03*
%TO.P,HDMI,P$5,SCL(I2C_DDC)*%
%TO.N,/SCL0*%
X146100000Y-113800000D03*
%TO.P,HDMI,P$6,RESERVED*%
%TO.N,unconnected-(U$4-RESERVED-PadP$6)*%
X146600000Y-113800000D03*
%TO.P,HDMI,P$7,CEC*%
%TO.N,unconnected-(U$4-CEC-PadP$7)*%
X147100000Y-113800000D03*
%TO.P,HDMI,P$8,TMDS_CLOCK-*%
%TO.N,/CAM_CLK*%
X147600000Y-113800000D03*
%TO.P,HDMI,P$9,TMDS_CLOCK_SHIELD*%
%TO.N,GND*%
X148100000Y-113800000D03*
%TO.P,HDMI,P$10,TMDS_CLOCK+*%
%TO.N,/CAM_GPIO*%
X148600000Y-113800000D03*
%TO.P,HDMI,P$11,DATA0-*%
%TO.N,/CAM1_CP*%
X149100000Y-113800000D03*
%TO.P,HDMI,P$12,DATA0_SHIELD*%
%TO.N,GND*%
X149600000Y-113800000D03*
%TO.P,HDMI,P$13,DATA0+*%
%TO.N,/CAM1_CN*%
X150100000Y-113800000D03*
%TO.P,HDMI,P$14,DATA1-*%
%TO.N,/CAM1-DP1*%
X150600000Y-113800000D03*
%TO.P,HDMI,P$15,DATA1_SHIELD*%
%TO.N,GND*%
X151100000Y-113800000D03*
%TO.P,HDMI,P$16,DATA1+*%
%TO.N,/CAM1-DN1*%
X151600000Y-113800000D03*
%TO.P,HDMI,P$17,TMDS_DATA2-*%
%TO.N,/CAM1-DP0*%
X152100000Y-113800000D03*
%TO.P,HDMI,P$18,TMDS_DATA2_SHIELD*%
%TO.N,GND*%
X152600000Y-113800000D03*
%TO.P,HDMI,P$19,TMDS_DATA2+*%
%TO.N,/CAM1-DN0*%
X153100000Y-113800000D03*
D16*
%TO.P,HDMI,P$20*%
%TO.N,N/C*%
X141350000Y-114560000D03*
D17*
%TO.P,HDMI,P$21*%
X141350000Y-120510000D03*
%TO.P,HDMI,P$22*%
X155850000Y-120510000D03*
D16*
%TO.P,HDMI,P$23*%
X155850000Y-114560000D03*
%TD*%
D10*
%TO.P,@HOLE0,*%
%TO.N,*%
X159101100Y-91753600D03*
%TD*%
%TO.P,@HOLE2,*%
%TO.N,*%
X138100000Y-104254000D03*
%TD*%
D13*
%TO.P,R1,1,1*%
%TO.N,/SCL0*%
X145200000Y-103135000D03*
D14*
%TO.P,R1,2,2*%
%TO.N,+3V3*%
X145200000Y-92975000D03*
%TD*%
D10*
%TO.P,@HOLE3,*%
%TO.N,*%
X159100000Y-104254000D03*
%TD*%
D18*
%TO.N,GND*%
X154084552Y-115190992D02*
X153575544Y-115700000D01*
X152499973Y-86046826D02*
X152499973Y-87274999D01*
X153575544Y-115700000D02*
X152600000Y-115700000D01*
X149425000Y-87200028D02*
X149499971Y-87274999D01*
X152525000Y-86021799D02*
X152499973Y-86046826D01*
X149425000Y-86021799D02*
X149425000Y-87200028D01*
X155525000Y-110418376D02*
X154084552Y-111858824D01*
X154084552Y-111858824D02*
X154084552Y-115190992D01*
X145106516Y-109356516D02*
X142725000Y-106975000D01*
X146499972Y-86250028D02*
X146499972Y-87274999D01*
X149600000Y-113800000D02*
X149600000Y-115700000D01*
X155525000Y-87300027D02*
X155525000Y-110418376D01*
X155499972Y-87274999D02*
X155499972Y-86124999D01*
X152525000Y-86021799D02*
X149425000Y-86021799D01*
X155499972Y-87274999D02*
X155525000Y-87300027D01*
X149600000Y-115700000D02*
X148100000Y-115700000D01*
X151100000Y-113800000D02*
X151100000Y-115700000D01*
X149425000Y-86021799D02*
X146728201Y-86021799D01*
X145606516Y-115700000D02*
X145100000Y-115193484D01*
X148100000Y-115700000D02*
X145606516Y-115700000D01*
X152600000Y-113800000D02*
X152600000Y-115700000D01*
X148100000Y-113800000D02*
X148100000Y-115700000D01*
X155499972Y-86124999D02*
X155396772Y-86021799D01*
X155396772Y-86021799D02*
X152525000Y-86021799D01*
X145100000Y-115193484D02*
X145100000Y-113800000D01*
X151100000Y-115700000D02*
X149600000Y-115700000D01*
X146728201Y-86021799D02*
X146499972Y-86250028D01*
X152600000Y-115700000D02*
X151100000Y-115700000D01*
X145106516Y-113779028D02*
X145106516Y-109356516D01*
%TO.N,+3V3*%
X141775000Y-92975000D02*
X141775000Y-87550027D01*
X142725000Y-109475000D02*
X139900000Y-106650000D01*
X139900000Y-106650000D02*
X139900000Y-94850000D01*
X141775000Y-87550027D02*
X141499972Y-87274999D01*
X144606516Y-111356516D02*
X144606516Y-113779028D01*
X139900000Y-94850000D02*
X141775000Y-92975000D01*
X142725000Y-109475000D02*
X144606516Y-111356516D01*
%TO.N,/SCL0*%
X143499971Y-101434971D02*
X145200000Y-103135000D01*
X145200000Y-103135000D02*
X146106516Y-104041516D01*
X143499971Y-87274999D02*
X143499971Y-101434971D01*
X146106516Y-104041516D02*
X146106516Y-113779028D01*
%TO.N,/SDA0*%
X141525000Y-95025000D02*
X142628200Y-93921800D01*
X142628200Y-93921800D02*
X142628200Y-87403226D01*
X145606516Y-106206516D02*
X144596516Y-106206516D01*
X142628200Y-87403226D02*
X142499973Y-87274999D01*
X145606516Y-113779028D02*
X145606516Y-106206516D01*
X141525000Y-103135000D02*
X141525000Y-95025000D01*
X144596516Y-106206516D02*
X141525000Y-103135000D01*
%TO.N,/CAM_CLK*%
X147606516Y-112193484D02*
X147606516Y-113779028D01*
X144499971Y-92114868D02*
X144096800Y-92518039D01*
X148109552Y-111690448D02*
X147606516Y-112193484D01*
X148109552Y-98990435D02*
X148109552Y-111690448D01*
X144096800Y-92518039D02*
X144096800Y-94977683D01*
X144499971Y-87274999D02*
X144499971Y-92114868D01*
X144096800Y-94977683D02*
X148109552Y-98990435D01*
%TO.N,/CAM1-DP0*%
X153499971Y-87274999D02*
X153475000Y-87299970D01*
X152106516Y-111693484D02*
X152106516Y-113779028D01*
X153475000Y-110325000D02*
X152106516Y-111693484D01*
X153475000Y-87299970D02*
X153475000Y-110325000D01*
%TO.N,/CAM1-DN1*%
X151606516Y-87381543D02*
X151499972Y-87274999D01*
X151606516Y-113779028D02*
X151606516Y-87381543D01*
%TO.N,/CAM1_CN*%
X148499971Y-94800029D02*
X148475000Y-94825000D01*
X148475000Y-94825000D02*
X150106516Y-96456516D01*
X148499971Y-87274999D02*
X148499971Y-94800029D01*
X150106516Y-96456516D02*
X150106516Y-113779028D01*
%TO.N,/CAM1-DP1*%
X150606516Y-87381543D02*
X150606516Y-113779028D01*
X150499972Y-87274999D02*
X150606516Y-87381543D01*
%TO.N,/CAM1-DN0*%
X154500000Y-87275028D02*
X154499971Y-87274999D01*
X154500000Y-110873166D02*
X154500000Y-87275028D01*
X153681352Y-111691814D02*
X154500000Y-110873166D01*
X153681352Y-113204192D02*
X153681352Y-111691814D01*
X153106516Y-113779028D02*
X153681352Y-113204192D01*
%TO.N,/CAM_GPIO*%
X145499972Y-87274999D02*
X145499972Y-88131399D01*
X148606516Y-96781516D02*
X148606516Y-113779028D01*
X146753172Y-89384599D02*
X146753172Y-94928172D01*
X146753172Y-94928172D02*
X148606516Y-96781516D01*
X145499972Y-88131399D02*
X146753172Y-89384599D01*
%TO.N,/CAM1_CP*%
X147499973Y-87274999D02*
X147499973Y-94920183D01*
X149106516Y-96526726D02*
X149106516Y-113779028D01*
X147499973Y-94920183D02*
X149106516Y-96526726D01*
%TD*%
M02*
