%TF.GenerationSoftware,KiCad,Pcbnew,8.0.5*%
%TF.CreationDate,2024-12-17T10:43:13+01:00*%
%TF.ProjectId,ffc2hdmi,66666332-6864-46d6-992e-6b696361645f,rev?*%
%TF.SameCoordinates,Original*%
%TF.FileFunction,Soldermask,Top*%
%TF.FilePolarity,Negative*%
%FSLAX46Y46*%
G04 Gerber Fmt 4.6, Leading zero omitted, Abs format (unit mm)*
G04 Created by KiCad (PCBNEW 8.0.5) date 2024-12-17 10:43:13*
%MOMM*%
%LPD*%
G01*
G04 APERTURE LIST*
%ADD10C,2.600000*%
%ADD11R,0.600000X1.900000*%
%ADD12R,2.100000X2.799999*%
%ADD13C,1.600000*%
%ADD14O,1.600000X1.600000*%
%ADD15R,0.280000X2.600000*%
%ADD16O,1.703200X3.503200*%
%ADD17O,1.703200X2.503200*%
G04 APERTURE END LIST*
D10*
%TO.C,@HOLE1*%
X138101100Y-91753600D03*
%TD*%
D11*
%TO.C,X1*%
X155499972Y-87274999D03*
X154499971Y-87274999D03*
X153499971Y-87274999D03*
X152499973Y-87274999D03*
X151499972Y-87274999D03*
X150499972Y-87274999D03*
X149499971Y-87274999D03*
X148499971Y-87274999D03*
X147499973Y-87274999D03*
X146499972Y-87274999D03*
X145499972Y-87274999D03*
X144499971Y-87274999D03*
X143499971Y-87274999D03*
X142499973Y-87274999D03*
X141499972Y-87274999D03*
D12*
X158649972Y-84924999D03*
X138350000Y-84924999D03*
%TD*%
D13*
%TO.C,R2*%
X141525000Y-103135000D03*
D14*
X141525000Y-92975000D03*
%TD*%
D13*
%TO.C,C2*%
X142725000Y-109475000D03*
X142725000Y-106975000D03*
%TD*%
D15*
%TO.C,HDMI*%
X144100000Y-113800000D03*
X144600000Y-113800000D03*
X145100000Y-113800000D03*
X145600000Y-113800000D03*
X146100000Y-113800000D03*
X146600000Y-113800000D03*
X147100000Y-113800000D03*
X147600000Y-113800000D03*
X148100000Y-113800000D03*
X148600000Y-113800000D03*
X149100000Y-113800000D03*
X149600000Y-113800000D03*
X150100000Y-113800000D03*
X150600000Y-113800000D03*
X151100000Y-113800000D03*
X151600000Y-113800000D03*
X152100000Y-113800000D03*
X152600000Y-113800000D03*
X153100000Y-113800000D03*
D16*
X141350000Y-114560000D03*
D17*
X141350000Y-120510000D03*
X155850000Y-120510000D03*
D16*
X155850000Y-114560000D03*
%TD*%
D10*
%TO.C,@HOLE0*%
X159101100Y-91753600D03*
%TD*%
%TO.C,@HOLE2*%
X138100000Y-104254000D03*
%TD*%
D13*
%TO.C,R1*%
X145200000Y-103135000D03*
D14*
X145200000Y-92975000D03*
%TD*%
D10*
%TO.C,@HOLE3*%
X159100000Y-104254000D03*
%TD*%
M02*
