%TF.GenerationSoftware,KiCad,Pcbnew,8.0.5*%
%TF.CreationDate,2024-12-17T10:43:13+01:00*%
%TF.ProjectId,ffc2hdmi,66666332-6864-46d6-992e-6b696361645f,rev?*%
%TF.SameCoordinates,Original*%
%TF.FileFunction,Legend,Top*%
%TF.FilePolarity,Positive*%
%FSLAX46Y46*%
G04 Gerber Fmt 4.6, Leading zero omitted, Abs format (unit mm)*
G04 Created by KiCad (PCBNEW 8.0.5) date 2024-12-17 10:43:13*
%MOMM*%
%LPD*%
G01*
G04 APERTURE LIST*
%ADD10C,0.150000*%
%ADD11C,0.152400*%
%ADD12C,0.120000*%
%ADD13C,0.127000*%
G04 APERTURE END LIST*
D10*
X147785952Y-82808773D02*
X147725476Y-82869250D01*
X147725476Y-82869250D02*
X147544047Y-82929726D01*
X147544047Y-82929726D02*
X147423095Y-82929726D01*
X147423095Y-82929726D02*
X147241666Y-82869250D01*
X147241666Y-82869250D02*
X147120714Y-82748297D01*
X147120714Y-82748297D02*
X147060237Y-82627345D01*
X147060237Y-82627345D02*
X146999761Y-82385440D01*
X146999761Y-82385440D02*
X146999761Y-82204011D01*
X146999761Y-82204011D02*
X147060237Y-81962107D01*
X147060237Y-81962107D02*
X147120714Y-81841154D01*
X147120714Y-81841154D02*
X147241666Y-81720202D01*
X147241666Y-81720202D02*
X147423095Y-81659726D01*
X147423095Y-81659726D02*
X147544047Y-81659726D01*
X147544047Y-81659726D02*
X147725476Y-81720202D01*
X147725476Y-81720202D02*
X147785952Y-81780678D01*
X148269761Y-82869250D02*
X148451190Y-82929726D01*
X148451190Y-82929726D02*
X148753571Y-82929726D01*
X148753571Y-82929726D02*
X148874523Y-82869250D01*
X148874523Y-82869250D02*
X148934999Y-82808773D01*
X148934999Y-82808773D02*
X148995476Y-82687821D01*
X148995476Y-82687821D02*
X148995476Y-82566869D01*
X148995476Y-82566869D02*
X148934999Y-82445916D01*
X148934999Y-82445916D02*
X148874523Y-82385440D01*
X148874523Y-82385440D02*
X148753571Y-82324964D01*
X148753571Y-82324964D02*
X148511666Y-82264488D01*
X148511666Y-82264488D02*
X148390714Y-82204011D01*
X148390714Y-82204011D02*
X148330237Y-82143535D01*
X148330237Y-82143535D02*
X148269761Y-82022583D01*
X148269761Y-82022583D02*
X148269761Y-81901630D01*
X148269761Y-81901630D02*
X148330237Y-81780678D01*
X148330237Y-81780678D02*
X148390714Y-81720202D01*
X148390714Y-81720202D02*
X148511666Y-81659726D01*
X148511666Y-81659726D02*
X148814047Y-81659726D01*
X148814047Y-81659726D02*
X148995476Y-81720202D01*
X149539761Y-82929726D02*
X149539761Y-81659726D01*
X144928557Y-83679819D02*
X144452367Y-83679819D01*
X144452367Y-83679819D02*
X144404748Y-84156009D01*
X144404748Y-84156009D02*
X144452367Y-84108390D01*
X144452367Y-84108390D02*
X144547605Y-84060771D01*
X144547605Y-84060771D02*
X144785700Y-84060771D01*
X144785700Y-84060771D02*
X144880938Y-84108390D01*
X144880938Y-84108390D02*
X144928557Y-84156009D01*
X144928557Y-84156009D02*
X144976176Y-84251247D01*
X144976176Y-84251247D02*
X144976176Y-84489342D01*
X144976176Y-84489342D02*
X144928557Y-84584580D01*
X144928557Y-84584580D02*
X144880938Y-84632200D01*
X144880938Y-84632200D02*
X144785700Y-84679819D01*
X144785700Y-84679819D02*
X144547605Y-84679819D01*
X144547605Y-84679819D02*
X144452367Y-84632200D01*
X144452367Y-84632200D02*
X144404748Y-84584580D01*
X145357129Y-83775057D02*
X145404748Y-83727438D01*
X145404748Y-83727438D02*
X145499986Y-83679819D01*
X145499986Y-83679819D02*
X145738081Y-83679819D01*
X145738081Y-83679819D02*
X145833319Y-83727438D01*
X145833319Y-83727438D02*
X145880938Y-83775057D01*
X145880938Y-83775057D02*
X145928557Y-83870295D01*
X145928557Y-83870295D02*
X145928557Y-83965533D01*
X145928557Y-83965533D02*
X145880938Y-84108390D01*
X145880938Y-84108390D02*
X145309510Y-84679819D01*
X145309510Y-84679819D02*
X145928557Y-84679819D01*
X146309510Y-83775057D02*
X146357129Y-83727438D01*
X146357129Y-83727438D02*
X146452367Y-83679819D01*
X146452367Y-83679819D02*
X146690462Y-83679819D01*
X146690462Y-83679819D02*
X146785700Y-83727438D01*
X146785700Y-83727438D02*
X146833319Y-83775057D01*
X146833319Y-83775057D02*
X146880938Y-83870295D01*
X146880938Y-83870295D02*
X146880938Y-83965533D01*
X146880938Y-83965533D02*
X146833319Y-84108390D01*
X146833319Y-84108390D02*
X146261891Y-84679819D01*
X146261891Y-84679819D02*
X146880938Y-84679819D01*
X147214272Y-83679819D02*
X147880938Y-83679819D01*
X147880938Y-83679819D02*
X147452367Y-84679819D01*
X148785700Y-84679819D02*
X148214272Y-84679819D01*
X148499986Y-84679819D02*
X148499986Y-83679819D01*
X148499986Y-83679819D02*
X148404748Y-83822676D01*
X148404748Y-83822676D02*
X148309510Y-83917914D01*
X148309510Y-83917914D02*
X148214272Y-83965533D01*
X149738081Y-84679819D02*
X149166653Y-84679819D01*
X149452367Y-84679819D02*
X149452367Y-83679819D01*
X149452367Y-83679819D02*
X149357129Y-83822676D01*
X149357129Y-83822676D02*
X149261891Y-83917914D01*
X149261891Y-83917914D02*
X149166653Y-83965533D01*
X150642843Y-83679819D02*
X150166653Y-83679819D01*
X150166653Y-83679819D02*
X150119034Y-84156009D01*
X150119034Y-84156009D02*
X150166653Y-84108390D01*
X150166653Y-84108390D02*
X150261891Y-84060771D01*
X150261891Y-84060771D02*
X150499986Y-84060771D01*
X150499986Y-84060771D02*
X150595224Y-84108390D01*
X150595224Y-84108390D02*
X150642843Y-84156009D01*
X150642843Y-84156009D02*
X150690462Y-84251247D01*
X150690462Y-84251247D02*
X150690462Y-84489342D01*
X150690462Y-84489342D02*
X150642843Y-84584580D01*
X150642843Y-84584580D02*
X150595224Y-84632200D01*
X150595224Y-84632200D02*
X150499986Y-84679819D01*
X150499986Y-84679819D02*
X150261891Y-84679819D01*
X150261891Y-84679819D02*
X150166653Y-84632200D01*
X150166653Y-84632200D02*
X150119034Y-84584580D01*
X151023796Y-83679819D02*
X151690462Y-83679819D01*
X151690462Y-83679819D02*
X151261891Y-84679819D01*
X152119034Y-84679819D02*
X152309510Y-84679819D01*
X152309510Y-84679819D02*
X152404748Y-84632200D01*
X152404748Y-84632200D02*
X152452367Y-84584580D01*
X152452367Y-84584580D02*
X152547605Y-84441723D01*
X152547605Y-84441723D02*
X152595224Y-84251247D01*
X152595224Y-84251247D02*
X152595224Y-83870295D01*
X152595224Y-83870295D02*
X152547605Y-83775057D01*
X152547605Y-83775057D02*
X152499986Y-83727438D01*
X152499986Y-83727438D02*
X152404748Y-83679819D01*
X152404748Y-83679819D02*
X152214272Y-83679819D01*
X152214272Y-83679819D02*
X152119034Y-83727438D01*
X152119034Y-83727438D02*
X152071415Y-83775057D01*
X152071415Y-83775057D02*
X152023796Y-83870295D01*
X152023796Y-83870295D02*
X152023796Y-84108390D01*
X152023796Y-84108390D02*
X152071415Y-84203628D01*
X152071415Y-84203628D02*
X152119034Y-84251247D01*
X152119034Y-84251247D02*
X152214272Y-84298866D01*
X152214272Y-84298866D02*
X152404748Y-84298866D01*
X152404748Y-84298866D02*
X152499986Y-84251247D01*
X152499986Y-84251247D02*
X152547605Y-84203628D01*
X152547605Y-84203628D02*
X152595224Y-84108390D01*
X141979819Y-98221666D02*
X141503628Y-98554999D01*
X141979819Y-98793094D02*
X140979819Y-98793094D01*
X140979819Y-98793094D02*
X140979819Y-98412142D01*
X140979819Y-98412142D02*
X141027438Y-98316904D01*
X141027438Y-98316904D02*
X141075057Y-98269285D01*
X141075057Y-98269285D02*
X141170295Y-98221666D01*
X141170295Y-98221666D02*
X141313152Y-98221666D01*
X141313152Y-98221666D02*
X141408390Y-98269285D01*
X141408390Y-98269285D02*
X141456009Y-98316904D01*
X141456009Y-98316904D02*
X141503628Y-98412142D01*
X141503628Y-98412142D02*
X141503628Y-98793094D01*
X141075057Y-97840713D02*
X141027438Y-97793094D01*
X141027438Y-97793094D02*
X140979819Y-97697856D01*
X140979819Y-97697856D02*
X140979819Y-97459761D01*
X140979819Y-97459761D02*
X141027438Y-97364523D01*
X141027438Y-97364523D02*
X141075057Y-97316904D01*
X141075057Y-97316904D02*
X141170295Y-97269285D01*
X141170295Y-97269285D02*
X141265533Y-97269285D01*
X141265533Y-97269285D02*
X141408390Y-97316904D01*
X141408390Y-97316904D02*
X141979819Y-97888332D01*
X141979819Y-97888332D02*
X141979819Y-97269285D01*
X145159580Y-108166666D02*
X145207200Y-108214285D01*
X145207200Y-108214285D02*
X145254819Y-108357142D01*
X145254819Y-108357142D02*
X145254819Y-108452380D01*
X145254819Y-108452380D02*
X145207200Y-108595237D01*
X145207200Y-108595237D02*
X145111961Y-108690475D01*
X145111961Y-108690475D02*
X145016723Y-108738094D01*
X145016723Y-108738094D02*
X144826247Y-108785713D01*
X144826247Y-108785713D02*
X144683390Y-108785713D01*
X144683390Y-108785713D02*
X144492914Y-108738094D01*
X144492914Y-108738094D02*
X144397676Y-108690475D01*
X144397676Y-108690475D02*
X144302438Y-108595237D01*
X144302438Y-108595237D02*
X144254819Y-108452380D01*
X144254819Y-108452380D02*
X144254819Y-108357142D01*
X144254819Y-108357142D02*
X144302438Y-108214285D01*
X144302438Y-108214285D02*
X144350057Y-108166666D01*
X144350057Y-107785713D02*
X144302438Y-107738094D01*
X144302438Y-107738094D02*
X144254819Y-107642856D01*
X144254819Y-107642856D02*
X144254819Y-107404761D01*
X144254819Y-107404761D02*
X144302438Y-107309523D01*
X144302438Y-107309523D02*
X144350057Y-107261904D01*
X144350057Y-107261904D02*
X144445295Y-107214285D01*
X144445295Y-107214285D02*
X144540533Y-107214285D01*
X144540533Y-107214285D02*
X144683390Y-107261904D01*
X144683390Y-107261904D02*
X145254819Y-107833332D01*
X145254819Y-107833332D02*
X145254819Y-107214285D01*
X146574047Y-118889726D02*
X146574047Y-117619726D01*
X146574047Y-118224488D02*
X147299762Y-118224488D01*
X147299762Y-118889726D02*
X147299762Y-117619726D01*
X147904523Y-118889726D02*
X147904523Y-117619726D01*
X147904523Y-117619726D02*
X148206904Y-117619726D01*
X148206904Y-117619726D02*
X148388333Y-117680202D01*
X148388333Y-117680202D02*
X148509285Y-117801154D01*
X148509285Y-117801154D02*
X148569762Y-117922107D01*
X148569762Y-117922107D02*
X148630238Y-118164011D01*
X148630238Y-118164011D02*
X148630238Y-118345440D01*
X148630238Y-118345440D02*
X148569762Y-118587345D01*
X148569762Y-118587345D02*
X148509285Y-118708297D01*
X148509285Y-118708297D02*
X148388333Y-118829250D01*
X148388333Y-118829250D02*
X148206904Y-118889726D01*
X148206904Y-118889726D02*
X147904523Y-118889726D01*
X149174523Y-118889726D02*
X149174523Y-117619726D01*
X149174523Y-117619726D02*
X149597857Y-118526869D01*
X149597857Y-118526869D02*
X150021190Y-117619726D01*
X150021190Y-117619726D02*
X150021190Y-118889726D01*
X150625952Y-118889726D02*
X150625952Y-117619726D01*
X145454819Y-97901666D02*
X144978628Y-98234999D01*
X145454819Y-98473094D02*
X144454819Y-98473094D01*
X144454819Y-98473094D02*
X144454819Y-98092142D01*
X144454819Y-98092142D02*
X144502438Y-97996904D01*
X144502438Y-97996904D02*
X144550057Y-97949285D01*
X144550057Y-97949285D02*
X144645295Y-97901666D01*
X144645295Y-97901666D02*
X144788152Y-97901666D01*
X144788152Y-97901666D02*
X144883390Y-97949285D01*
X144883390Y-97949285D02*
X144931009Y-97996904D01*
X144931009Y-97996904D02*
X144978628Y-98092142D01*
X144978628Y-98092142D02*
X144978628Y-98473094D01*
X145454819Y-96949285D02*
X145454819Y-97520713D01*
X145454819Y-97234999D02*
X144454819Y-97234999D01*
X144454819Y-97234999D02*
X144597676Y-97330237D01*
X144597676Y-97330237D02*
X144692914Y-97425475D01*
X144692914Y-97425475D02*
X144740533Y-97520713D01*
D11*
%TO.C,X1*%
X137500008Y-80525000D02*
X137500008Y-83207499D01*
X137500008Y-86642498D02*
X137500008Y-87925000D01*
X137500008Y-87925000D02*
X140882472Y-87925000D01*
X154546964Y-90703999D02*
X155562964Y-89129199D01*
X156117472Y-87925000D02*
X159499964Y-87925000D01*
X156324964Y-90703999D02*
X154546964Y-90703999D01*
X156324964Y-90703999D02*
X155562964Y-89129199D01*
X159499964Y-80525000D02*
X137500008Y-80525000D01*
X159499964Y-83207499D02*
X159499964Y-80525000D01*
X159499964Y-87925000D02*
X159499964Y-86642498D01*
D12*
%TO.C,R2*%
X140155000Y-94785000D02*
X140155000Y-101325000D01*
X140155000Y-101325000D02*
X142895000Y-101325000D01*
X141525000Y-94015000D02*
X141525000Y-94785000D01*
X141525000Y-102095000D02*
X141525000Y-101325000D01*
X142895000Y-94785000D02*
X140155000Y-94785000D01*
X142895000Y-101325000D02*
X142895000Y-94785000D01*
%TO.C,C2*%
X141805000Y-108854000D02*
X141805000Y-107596000D01*
X143645000Y-108854000D02*
X143645000Y-107596000D01*
D13*
%TO.C,HDMI*%
X139600000Y-111952000D02*
X139600000Y-124110000D01*
X157600000Y-111952000D02*
X139600000Y-111952000D01*
X157600000Y-124110000D02*
X139600000Y-124110000D01*
X157600000Y-124110000D02*
X157600000Y-111952000D01*
D12*
%TO.C,R1*%
X143830000Y-94785000D02*
X143830000Y-101325000D01*
X143830000Y-101325000D02*
X146570000Y-101325000D01*
X145200000Y-94015000D02*
X145200000Y-94785000D01*
X145200000Y-102095000D02*
X145200000Y-101325000D01*
X146570000Y-94785000D02*
X143830000Y-94785000D01*
X146570000Y-101325000D02*
X146570000Y-94785000D01*
%TD*%
M02*
